<svg width="66" height="19" fill="none" xmlns="http://www.w3.org/2000/svg"><path d="M3.44 15.36h6.84V18H.68V1.2h2.76v14.16zm21.85.432c-1.68 1.68-3.736 2.52-6.168 2.52s-4.496-.84-6.192-2.52c-1.68-1.696-2.52-3.76-2.52-6.192 0-2.432.84-4.488 2.52-6.168C14.626 1.736 16.69.888 19.122.888c2.432 0 4.488.848 6.168 2.544 1.696 1.68 2.544 3.736 2.544 6.168s-.848 4.496-2.544 6.192zM14.874 13.92c1.152 1.136 2.568 1.704 4.248 1.704 1.68 0 3.088-.568 4.224-1.704 1.152-1.152 1.728-2.592 1.728-4.32 0-1.728-.576-3.16-1.728-4.296-1.136-1.152-2.544-1.728-4.224-1.728-1.68 0-3.096.576-4.248 1.728C13.738 6.44 13.17 7.872 13.17 9.6c0 1.728.568 3.168 1.704 4.32zm31.822-4.608v1.152c0 2.304-.76 4.192-2.28 5.664-1.52 1.456-3.504 2.184-5.952 2.184-2.592 0-4.736-.84-6.432-2.52-1.68-1.68-2.52-3.744-2.52-6.192 0-2.432.84-4.488 2.52-6.168C33.728 1.736 35.824.888 38.32.888c1.568 0 3 .36 4.296 1.08 1.296.72 2.304 1.688 3.024 2.904L43.264 6.24c-.448-.8-1.112-1.44-1.992-1.92-.88-.496-1.864-.744-2.952-.744-1.76 0-3.208.576-4.344 1.728-1.136 1.152-1.704 2.592-1.704 4.32 0 1.728.568 3.16 1.704 4.296 1.152 1.136 2.656 1.704 4.512 1.704 1.488 0 2.696-.344 3.624-1.032.944-.704 1.544-1.64 1.8-2.808h-5.616V9.312h8.4zm16.563 6.48c-1.68 1.68-3.736 2.52-6.168 2.52s-4.496-.84-6.192-2.52c-1.68-1.696-2.52-3.76-2.52-6.192 0-2.432.84-4.488 2.52-6.168C52.595 1.736 54.66.888 57.091.888c2.432 0 4.488.848 6.168 2.544 1.696 1.68 2.544 3.736 2.544 6.168s-.848 4.496-2.544 6.192zM52.843 13.92c1.152 1.136 2.568 1.704 4.248 1.704 1.68 0 3.088-.568 4.224-1.704 1.152-1.152 1.728-2.592 1.728-4.32 0-1.728-.576-3.16-1.728-4.296-1.136-1.152-2.544-1.728-4.224-1.728-1.68 0-3.096.576-4.248 1.728C51.707 6.44 51.14 7.872 51.14 9.6c0 1.728.568 3.168 1.704 4.32z" fill="#fff"/></svg>